<svg width="1200" height="758.0000000000001" xmlns="http://www.w3.org/2000/svg" xmlns:svg="http://www.w3.org/2000/svg" xmlns:xlink="http://www.w3.org/1999/xlink" stroke="null" style="vector-effect: non-scaling-stroke;">
 <title stroke="null" style="vector-effect: non-scaling-stroke;">explore</title>
 <g stroke="null">
  <title stroke="null">Layer 1</title>
  <polygon stroke="null" id="svg_3" fill="#fbbebe" points="964.48 705.871 968.591 722.314 950.504 727.247 948.86 709.982 964.48 705.871"/>
  <polygon style="vector-effect: non-scaling-stroke;" id="svg_4" fill="#fbbebe" points="898.709 726.425 898.709 742.045 880.622 745.334 877.334 737.112 883.911 723.136 898.709 726.425"/>
  <path style="vector-effect: non-scaling-stroke;" id="svg_5" fill="#2f2e41" d="m934.88324,556.24308l-2.4664,22.1976l1.64426,42.75095a2.41556,2.41556 0 0 1 2.4664,2.4664c0,2.4664 -2.4664,1.64427 0,3.28854a42.71383,42.71383 0 0 0 4.11067,2.4664l26.30828,79.747s-6.57707,8.22133 -18.90908,5.75493l-2.4664,-8.22133s-4.9328,-4.9328 -4.9328,-7.3992s1.64427,-3.28854 0,-5.75494s-26.30827,-52.61655 -26.30827,-52.61655l-11.5099,-20.55338l-3.28851,27.9525s6.57707,35.35175 4.9328,51.79442s-4.9328,33.70748 -4.9328,33.70748l-19.73121,-3.28854a13.72713,13.72713 0 0 0 -2.4664,-7.3992c-2.4664,-3.28853 -5.75493,-2.4664 -2.4664,-4.9328s7.39921,0 4.11067,-3.28854a10.18491,10.18491 0 0 1 -3.28853,-6.57707l0,-2.4664l-4.93281,-63.30428l-9.04347,-83.0355l73.1699,-3.28849z"/>
  <circle stroke="null" id="svg_6" fill="#fbbebe" r="22.19761" cy="384.41715" cx="878.97815"/>
  <polygon stroke="null" id="svg_7" fill="#fbbebe" points="898.298 384.828 907.342 407.026 885.966 422.646 872.812 399.627 898.298 384.828"/>
  <path style="vector-effect: non-scaling-stroke;" id="svg_8" fill="#d0cde1" d="m899.53149,401.68195l8.22134,-4.11066l4.9328,11.50987s32.06321,9.8656 29.59681,55.08295s-8.22134,62.48215 -8.22134,62.48215s13.97627,29.59682 5.75494,32.88535s-78.1027,15.62054 -79.747,4.11067s5.75493,-78.92483 5.75493,-78.92483s-2.4664,-48.50588 18.08694,-58.37149l-4.11067,-9.04347l19.73125,-15.62054z"/>
  <path stroke="null" id="svg_9" fill="#fbbebe" d="m854.31414,561.17588s-18.90907,19.7312 -8.22133,24.664s17.2648,-22.19761 17.2648,-22.19761l-9.04347,-2.46639z"/>
  <path stroke="null" id="svg_10" fill="#2f2e41" d="m892.95442,737.93461l9.04347,-3.28854s9.86561,22.19761 1.64427,22.19761l-21.37547,0s-12.332,-4.11067 -18.90908,-4.11067s-18.90907,-12.332 -9.8656,-18.08694s20.55334,-4.11067 20.55334,-4.11067l3.28853,-7.3992l4.11067,11.50987s4.9328,8.22134 11.50987,3.28854z"/>
  <path stroke="null" id="svg_11" fill="#2f2e41" d="m959.54725,719.84767s5.14833,-3.24856 7.918,-2.03535s4.414,14.36735 4.414,14.36735s8.22134,9.8656 -9.8656,11.50987s-22.19761,-1.64427 -23.84188,-6.57707s1.64427,-9.8656 1.64427,-9.8656l4.9328,-1.64427s5.75494,-4.11067 4.11067,-5.75493s0,-4.93281 0,-4.93281s5.75493,11.50987 10.68774,4.93281z"/>
  <path stroke="null" id="svg_12" fill="#2f2e41" d="m886.57062,384.06144a10.893,10.893 0 0 0 -0.48282,-2.11225c-1.193,-2.503 -5.848,-1.77242 -6.67746,-4.41822c-0.16233,-0.51781 -0.12838,-1.08108 -0.28745,-1.59991a3.24611,3.24611 0 0 0 -3.3439,-1.91561a18.06369,18.06369 0 0 0 -4.008,1.032c-3.25223,0.923 -6.7123,0.57066 -10.07377,0.21084a10.1355,10.1355 0 0 1 -4.30111,-1.11969a3.46593,3.46593 0 0 1 -1.72678,-3.78049c0.44433,-1.36237 1.93519,-2.111 2.60552,-3.37752c1.06443,-2.01115 -0.23674,-4.60862 0.62678,-6.71387c1.38521,-3.37715 6.6274,-2.699 9.29069,-5.19521c0.64646,-0.60589 1.112,-1.38044 1.7316,-2.01376c1.83835,-1.879 4.7416,-2.24271 7.35749,-1.98349s5.18645,1.02737 7.81474,0.98089c2.49256,-0.04408 5.10535,-0.80312 7.40205,0.16638a10.557,10.557 0 0 1 3.477,2.8564l5.89084,6.46079a7.26046,7.26046 0 0 1 1.82077,2.74255c0.35442,1.23792 0.0282,2.567 0.1794,3.84574c0.34483,2.91636 3.07512,5.11915 3.44351,8.03263a10.44516,10.44516 0 0 1 -0.12993,2.70526l-0.82518,6.0841a4.5276,4.5276 0 0 1 -0.46492,1.70489c-0.24,0.41 -0.60279,0.73378 -0.87294,1.12454c-0.76276,1.10331 -0.69312,2.5617 -1.07219,3.84832s-1.73827,2.55973 -2.92728,1.93965c-0.7757,-0.40453 -1.28891,-3.74994 -2.23121,-4.6185c-1.31253,-1.20979 -1.99822,-1.06069 -3.61828,-1.04022c-3.24457,0.04105 -7.55898,0.31924 -8.59717,-3.84624z"/>
  <path style="vector-effect: non-scaling-stroke;" id="svg_13" fill="#d0cde1" d="m890.488,432.1009s24.664,9.8656 17.26481,32.06321s-27.13041,90.4347 -27.13041,90.4347l-11.50987,5.75493l-3.28854,9.04347l-15.62054,-5.75493l2.4664,-12.332s0.82214,-0.82213 0.82214,-4.11066s-3.28854,-4.11067 0.82213,-4.11067s4.11067,-4.11067 4.11067,-4.11067l14.79841,-92.079s0.00002,-15.62052 17.2648,-14.79838z"/>
  <polygon stroke="null" id="svg_14" opacity="0.1" points="908.986 468.686 883.5 555.832 872.812 566.52 878.978 555.421 908.986 468.686"/>
  <path stroke="null" id="svg_28" fill="#3f3d56" d="m1003.36035,373.1658l-26.28613,-21.56543l21.56543,-26.28613l26.28613,21.56543l-21.56543,26.28613zm-23.47168,-21.8428l23.19434,19.02832l19.02832,-23.19434l-23.19433,-19.02829l-19.02833,23.19431z"/>
  <path stroke="null" id="svg_32" fill="#3f3d56" d="m1083.89593,150.13454a12,12 0 1 1 12,12a12.01344,12.01344 0 0 1 -12,-12zm2,0a10,10 0 1 0 10,-10a10.01146,10.01146 0 0 0 -10,10z"/>
  <path stroke="null" id="svg_33" fill="#3f3d56" d="m1024.89593,552.13454a12,12 0 1 1 12,-12a12.01344,12.01344 0 0 1 -12,12zm0,-22a10,10 0 1 0 10,10a10.01146,10.01146 0 0 0 -10,-10z"/>
  <rect stroke="null" id="svg_35" fill="#3f3d56" height="357.65039" width="2" y="399.36947" x="1112.14759"/>
  <ellipse stroke="null" id="svg_36" fill="#3f3d56" ry="89" rx="39" cy="637.36947" cx="1113.53333"/>
  <ellipse stroke="null" style="vector-effect: non-scaling-stroke;" id="svg_37" fill="#3f3d56" ry="89" rx="39" cy="434.36947" cx="1113.53333"/>
  <path stroke="null" style="vector-effect: non-scaling-stroke;" id="svg_38" fill="#3f3d56" d="m1114.49134,361.65658l-1.916,-0.57422c0.1211,-0.4043 11.87891,-40.69678 -7.42724,-66.63526c-10.9043,-14.64941 -29.61573,-22.07763 -55.61475,-22.07763l0,-2c26.66992,0 45.92285,7.70166 57.22461,22.89111c19.90379,26.75142 7.8574,67.98291 7.73338,68.396z"/>
  <circle stroke="null" style="vector-effect: non-scaling-stroke;" id="svg_39" fill="#d0cde1" r="25" cy="271.36947" cx="1049.53333"/>
  <image stroke="null" xlink:href="images/logo.png" id="svg_46" height="4.22828" width="8.45657" y="103.79168" x="-2110.32909"/>
 </g>
</svg>