<svg width="798.6271800000001" height="689.22258" xmlns="http://www.w3.org/2000/svg" xmlns:svg="http://www.w3.org/2000/svg">
 <title>dev_productivity</title>
 <g stroke="null">
  <title>Layer 1</title>
  <ellipse fill="#ffff00" stroke-width="null" stroke-dasharray="null" stroke-linejoin="null" stroke-linecap="null" cx="113.90447" cy="136.87813" id="svg_38" rx="66.59546" ry="65.00984" stroke="null"/>
  <circle cx="435.92153" cy="118.40512" r="73.53607" fill="#a0616a" id="svg_1"/>
  <path d="m381.03588,155.17316s13.8546,104.44259 -7.46016,116.16564s126.8231,12.78888 126.8231,12.78888s-33.03794,-90.58789 -18.11762,-118.29718l-101.24532,-10.65734z" fill="#a0616a" id="svg_2" stroke="null"/>
  <path d="m608.57024,284.65601l-12.32,56.1l-26.05,118.69l-0.78,6.5l-8.99,75.25l-5.98,49.99l-4.01,33.58c-24.38,12.53 -42.05,21.18 -42.05,21.18s-1.52,-7.62 -3.97,-17.37c-17.11,5.13 -48.77,13.64 -75.6,15.34c9.77,10.89 14.26,21.12 8.17,28.67c-18.38,22.76 -94.26,-24.92 -120.8,-42.7a71.84076,71.84076 0 0 0 -0.7,12.86l-20.31,-15.62l2.01,-35.94l3.39,-60.81l4.26,-76.26a80.06413,80.06413 0 0 1 -3.37,-10.03c-6.22,-22.12 -13.77,-66.29 -19.56,-103.33c-4.66,-29.81 -8.16,-55 -8.9,-60.36c-0.1,-0.7 -0.15,-1.06 -0.15,-1.06l112.43,-49.68c7.99,18.53 45.30005,24.1 45.30005,24.1c30.91,-2.13 55.14,-18.43 55.14,-18.43l122.83995,49.33z" fill="#d0cde1" id="svg_3"/>
  <path d="m516.92022,624.63605s-4.76,1.63 -12.5,3.94c-17.11,5.13 -48.77,13.64 -75.6,15.34c-23.1,1.48 -42.62,-2.08 -46.19,-17.15c-1.53,-6.48 0.64,-11.81 5.37,-16.19c14.12,-13.09 51,-17.78 80.25,-19.39c8.26,-0.45 15.9,-0.66 22.26,-0.74c10.8,-0.14 17.88,0.08 17.88,0.08l0.17,0.66l8.36,33.45z" fill="#a0616a" id="svg_4" stroke="null"/>
  <path d="m374.74633,48.84678l-13.74945,-5.50449s28.74878,-31.65079 68.74742,-28.89843l-11.24986,-12.38521s27.49889,-11.00886 52.49786,17.88956c13.14149,15.19123 28.34631,33.04782 37.82491,53.163l14.72472,0l-6.14554,13.53179l21.50942,13.5318l-22.07731,-2.43059a75.61673,75.61673 0 0 1 0.5991,22.445a29.04072,29.04072 0 0 1 -10.63442,18.99788l0,0s-17.05183,-35.29562 -17.05183,-40.80013l0,13.76123s-13.74944,-12.38505 -13.74944,-20.64172l-7.49963,9.63282l-3.74981,-15.13741l-46.248,15.13741l7.49962,-12.385l-28.74878,4.12833l11.24986,-15.13741s-32.49859,17.88956 -33.74881,33.027c-1.24979,15.1372 -10.76227,29.48068 -10.76227,29.48068s-25.48625,-70.7644 10.76224,-91.40611z" fill="#2f2e41" id="svg_5" stroke="null"/>
  <path d="m688.50023,542.56604c-7.49,8.12 -26.05,20.35 -48.55,33.59c-8.37,4.92 -17.28,9.99 -26.37,15.03c-21.69,12.03 -44.4,23.95 -63.14,33.58c-24.38,12.53 -42.05,21.18 -42.05,21.18s-1.52,-7.62 -3.97,-17.37c-3.28,-13.05 -8.22,-29.92 -13.37,-37.39c-0.18,-0.26 -0.36,-0.5 -0.54,-0.74c-1.5,-1.97 -3.01,-3.12 -4.5,-3.12l74.42,-46.13l32.16,-19.94l-23.17,-55.31l-29.06,-69.38l17.54,-55.81l17.63,-56.1l33.04,0s10.94,23.88 24.93,57.18005c2.09,4.98 4.25,10.17 6.45,15.53c28.77999,69.99994 64.65999,167.74994 48.55,185.19995z" fill="#d0cde1" id="svg_6" stroke="null"/>
  <path d="m436.99022,672.58606c-18.38,22.76 -94.26,-24.92 -120.8,-42.7c-5.78,-3.87 -9.22,-6.32 -9.22,-6.32l24.28,-32.38l7.69,-10.25s6.88,3.65 17.05,9.59c0.37,0.22 0.74,0.44 1.12,0.66c8.77,5.15 19.78,11.88 30.89,19.39c15.33,10.37 30.83,22.2 40.82,33.34c9.77004,10.88997 14.26003,21.11995 8.17,28.67z" fill="#a0616a" id="svg_7" stroke="null"/>
  <path d="m355.99022,590.52606a47.78152,47.78152 0 0 0 -8.1,0.66c-22.99,3.95 -29.77,24.76 -31.7,38.7a71.84076,71.84076 0 0 0 -0.7,12.86l-20.31,-15.62l-7.4,-5.69c-17.81,-6.21 -33.68,-17.24 -47.44,-30.25a238.48245,238.48245 0 0 1 -31.95,-37.89a334.15026,334.15026 0 0 1 -24.72,-42.4a31.18368,31.18368 0 0 1 -0.43,-26.45l25.15,-56.05l36.76,-81.92q0.40494,-2.92492 0.88995,-5.72c7.29,-41.8 26.82,-60.36 26.82,-60.36l14.92,0l9.98,60.36l12.4,74.99l-8.69,28.34l-20.08,65.44995l19.19,20.84l55.41005,60.15005z" fill="#d0cde1" id="svg_8" stroke="null"/>
  <path d="m372.87658,415.80588l12.75489,14.88081c4.73879,-0.90351 9.68742,-1.96527 14.78434,-3.15766l-3.66344,-11.72315l8.9575,10.45044c53.9974,-13.28079 120.92677,-39.10138 120.92677,-39.10138s-72.25715,5.29821 -126.20826,-6.48861c-23.87075,-5.21509 -48.43073,6.61811 -58.22631,29.0024c-5.69358,13.01063 -4.7994,24.28275 15.394,24.28275a133.3748,133.3748 0 0 0 20.35271,-1.91438l-5.0722,-16.23122z" fill="#6c63ff" id="svg_9" stroke="null"/>
  <path d="m663.65026,660.38605l0,6.07a13.34012,13.34012 0 0 1 -0.91,4.87a13.68758,13.68758 0 0 1 -0.97,2a13.43748,13.43748 0 0 1 -11.55,6.56l-446.55,0a13.4374,13.4374 0 0 1 -11.55,-6.56a13.68249,13.68249 0 0 1 -0.97,-2a13.34012,13.34012 0 0 1 -0.91,-4.87l0,-6.07a13.42641,13.42641 0 0 1 13.43,-13.43l25.74,0l0,-2.83a0.55908,0.55908 0 0 1 0.56,-0.56l13.43,0a0.55908,0.55908 0 0 1 0.56,0.56l0,2.83l8.38995,0l0,-2.83a0.55908,0.55908 0 0 1 0.56,-0.56l13.43,0a0.55908,0.55908 0 0 1 0.56,0.56l0,2.83l8.4,0l0,-2.83a0.55908,0.55908 0 0 1 0.56,-0.56l13.43,0a0.55908,0.55908 0 0 1 0.56,0.56l0,2.83l8.39,0l0,-2.83a0.55908,0.55908 0 0 1 0.56,-0.56l13.43,0a0.55908,0.55908 0 0 1 0.56,0.56l0,2.83l8.39,0l0,-2.83a0.55908,0.55908 0 0 1 0.56,-0.56l13.43,0a0.55908,0.55908 0 0 1 0.56,0.56l0,2.83l8.4,0l0,-2.83a0.55908,0.55908 0 0 1 0.56,-0.56l13.43,0a0.55908,0.55908 0 0 1 0.56,0.56l0,2.83l8.39,0l0,-2.83a0.55908,0.55908 0 0 1 0.56,-0.56l105.2,0a0.55908,0.55908 0 0 1 0.56,0.56l0,2.83l8.4,0l0,-2.83a0.55908,0.55908 0 0 1 0.56,-0.56l13.43005,0a0.56556,0.56556 0 0 1 0.56,0.56l0,2.83l8.39,0l0,-2.83a0.55908,0.55908 0 0 1 0.56,-0.56l13.43,0a0.55909,0.55909 0 0 1 0.56005,0.56l0,2.83l8.39,0l0,-2.83a0.55908,0.55908 0 0 1 0.56,-0.56l13.43,0a0.55908,0.55908 0 0 1 0.56,0.56l0,2.83l8.4,0l0,-2.83a0.55908,0.55908 0 0 1 0.56,-0.56l13.43,0a0.557,0.557 0 0 1 0.55,0.56l0,2.83l8.4,0l0,-2.83a0.55908,0.55908 0 0 1 0.56,-0.56l13.43,0a0.55908,0.55908 0 0 1 0.56,0.56l0,2.83l8.39,0l0,-2.83a0.55908,0.55908 0 0 1 0.56,-0.56l13.43,0a0.55908,0.55908 0 0 1 0.56,0.56l0,2.83l39.17,0a13.42642,13.42642 0 0 1 13.42995,13.43z" fill="#3f3d56" id="svg_10" stroke="null"/>
  <rect x="60.50024" y="671.32605" width="732.99951" height="2" fill="#3f3d56" id="svg_11" stroke="null"/>
  <path d="m632.52328,399.27022l-166.44291,0l0,-3.43053l-75.47166,0l0,3.43053l-167.129,0a11.25861,11.25861 0 0 0 -11.25861,11.25861l0,227.9115a11.25864,11.25864 0 0 0 11.25861,11.25865l409.04357,0a11.25864,11.25864 0 0 0 11.25861,-11.25865l0,-227.9115a11.2586,11.2586 0 0 0 -11.25861,-11.25861z" fill="#3f3d56" id="svg_12"/>
  <circle cx="423.50024" cy="484.32605" r="25" fill="none" stroke-miterlimit="10" stroke-width="2" id="svg_13" stroke="#d0cde1"/>
  <circle cx="415.50024" cy="493.32605" r="25" fill="#d0cde1" id="svg_14" stroke="null"/>
  <circle cx="524.27932" cy="513.87663" r="80.92604" fill="#6c63ff" id="svg_19"/>
  <rect x="110.20774" y="63.01754" width="2.40426" height="16.82979" fill="#3f3d56" id="svg_21" stroke="null"/>
  <rect x="-0.2471" y="327.17963" width="2.40426" height="16.82979" transform="rotate(-45 -262.68939208984386,138.70396423339838) " fill="#3f3d56" id="svg_22" stroke="null"/>
  <rect x="39.91904" y="620.45625" width="2.40426" height="16.82979" transform="rotate(-90 -202.45382690429685,383.5287170410157) " fill="#3f3d56" id="svg_23" stroke="null"/>
  <rect x="304.08113" y="867.95367" width="2.40426" height="16.82979" transform="rotate(-135 41.63883972167969,582.5742797851562) " fill="#3f3d56" id="svg_24" stroke="null"/>
  <rect x="634.93112" y="674.1462" width="2.40426" height="16.82979" transform="rotate(-135 275.58511352539057,485.67053222656244) " fill="#3f3d56" id="svg_25" stroke="null"/>
  <rect x="314.00415" y="757.49882" width="2.40426" height="16.82979" transform="rotate(-90 -65.411277770996,520.5712890625001) " fill="#3f3d56" id="svg_26" stroke="null"/>
  <rect x="56.51779" y="520.98707" width="2.40426" height="16.82979" transform="rotate(-45 -302.8282165527345,235.607681274414) " fill="#3f3d56" id="svg_27" stroke="null"/>
  <rect x="110.20774" y="200.0601" width="2.40426" height="16.82979" fill="#3f3d56" id="svg_28" stroke="null"/>
 </g>
</svg>